<svg width="147" height="32" viewBox="0 0 147 32" fill="none" xmlns="http://www.w3.org/2000/svg">
<g clip-path="url(#clip0_1_2099)">
<path d="M16 0L10.4973 11.2827L25.6413 19.7667L16 0ZM8.83467 14.6907L0.393341 32L25.444 21.6507L8.83467 14.6907ZM27.296 23.16L19.3947 27.696L31.608 32L27.296 23.16Z" fill="#0D9488"/>
</g>
<path d="M62.664 12.4L60.624 19.792L58.44 12.4H55.512L53.328 19.768L51.288 12.4H48L51.816 24.4H54.768L56.976 17.128L59.184 24.4H62.136L65.952 12.4H62.664ZM72.864 24.736C76.392 24.736 79.224 21.976 79.224 18.4C79.224 14.824 76.392 12.064 72.864 12.064C69.336 12.064 66.528 14.824 66.528 18.4C66.528 21.976 69.336 24.736 72.864 24.736ZM72.864 21.712C71.04 21.712 69.624 20.344 69.624 18.4C69.624 16.456 71.04 15.088 72.864 15.088C74.712 15.088 76.128 16.456 76.128 18.4C76.128 20.344 74.712 21.712 72.864 21.712ZM84.498 14.464V12.4H81.402V24.4H84.498V18.664C84.498 16.144 86.538 15.424 88.146 15.616V12.16C86.634 12.16 85.122 12.832 84.498 14.464ZM101.02 24.4L96.053 18.328L100.877 12.4H97.18L93.052 17.68V7.6H89.956V24.4H93.052V18.952L97.42 24.4H101.02ZM109.022 7.264C105.206 7.264 103.382 8.968 103.382 12.28V12.4H101.654V15.376H103.382V24.4H106.478V15.376H108.47V12.4H106.478V12.28C106.478 10.648 107.414 9.976 109.022 9.976C109.334 9.976 109.67 9.976 110.006 10V24.4H113.102V7.768C111.782 7.504 110.534 7.264 109.022 7.264ZM121.637 24.736C125.165 24.736 127.997 21.976 127.997 18.4C127.997 14.824 125.165 12.064 121.637 12.064C118.109 12.064 115.301 14.824 115.301 18.4C115.301 21.976 118.109 24.736 121.637 24.736ZM121.637 21.712C119.813 21.712 118.397 20.344 118.397 18.4C118.397 16.456 119.813 15.088 121.637 15.088C123.485 15.088 124.901 16.456 124.901 18.4C124.901 20.344 123.485 21.712 121.637 21.712ZM143.219 12.4L141.179 19.792L138.995 12.4H136.067L133.883 19.768L131.843 12.4H128.555L132.371 24.4H135.323L137.531 17.128L139.739 24.4H142.691L146.507 12.4H143.219Z" fill="#1F2937"/>
<defs>
<clipPath id="clip0_1_2099">
<rect width="32" height="32" fill="white"/>
</clipPath>
</defs>
</svg>
